[h264 @ 0x55d026ec4600] Reinit context to 1280x720, pix_fmt: yuv420p
Input #0, mov,mp4,m4a,3gp,3g2,mj2, from '/var/www/html/project/media/video/original/20250527_AVELLINO_GRU_ADDESTRAMENTO_TV.mp4':
  Metadata:
    major_brand     : mp42
    minor_version   : 1
    compatible_brands: isommp41mp42
    creation_time   : 2025-05-27T12:48:06.000000Z
  Duration: 00:01:27.12, start: 0.000000, bitrate: 4212 kb/s
    Stream #0:0(eng): Audio: aac (LC) (mp4a / 0x6134706D), 44100 Hz, stereo, fltp, 126 kb/s (default)
    Metadata:
      creation_time   : 2025-05-27T12:48:06.000000Z
      handler_name    : Core Media Audio
    Stream #0:1(und): Video: h264 (High), 1 reference frame (avc1 / 0x31637661), yuv420p(tv, bt709, progressive, left), 1280x720, 4055 kb/s, SAR 1:1 DAR 16:9, 25 fps, 25 tbr, 25k tbn, 50k tbc (default)
    Metadata:
      creation_time   : 2025-05-27T12:48:06.000000Z
      handler_name    : Core Media Video
Input #1, png_pipe, from '/var/www/html/project/static/images/templates/logo.png':
  Duration: N/A, bitrate: N/A
    Stream #1:0: Video: png, 1 reference frame, rgba(pc), 1920x1080 [SAR 2835:2835 DAR 16:9], 25 tbr, 25 tbn, 25 tbc
[h264 @ 0x55d026f1ee00] Reinit context to 1280x720, pix_fmt: yuv420p
Input #2, mov,mp4,m4a,3gp,3g2,mj2, from '/var/www/html/project/static/images/templates/Codino.mp4':
  Metadata:
    major_brand     : mp42
    minor_version   : 1
    compatible_brands: isommp41mp42
    creation_time   : 2021-07-11T07:02:58.000000Z
  Duration: 00:00:02.00, start: 0.000000, bitrate: 1007 kb/s
    Stream #2:0(ita): Audio: aac (LC) (mp4a / 0x6134706D), 44100 Hz, stereo, fltp, 102 kb/s (default)
    Metadata:
      creation_time   : 2021-07-11T07:02:58.000000Z
      handler_name    : Core Media Audio
    Stream #2:1(und): Video: h264 (High), 1 reference frame (avc1 / 0x31637661), yuv420p(tv, bt709, progressive, left), 1280x720 [SAR 1:1 DAR 16:9], 813 kb/s, 25 fps, 25 tbr, 25k tbn, 50k tbc (default)
    Metadata:
      creation_time   : 2021-07-11T07:02:58.000000Z
      handler_name    : Core Media Video
[Parsed_scale_0 @ 0x55d026f4e340] w:1920 h:1080 flags:'bilinear' interl:0
[Parsed_scale_2 @ 0x55d026f18d40] w:1920 h:1080 flags:'bilinear' interl:0
[Parsed_scale_4 @ 0x55d026f68f40] w:1920 h:1080 flags:'bilinear' interl:0
Stream mapping:
  Stream #0:0 (aac) -> concat:in0:a0
  Stream #0:1 (h264) -> scale
  Stream #1:0 (png) -> scale
  Stream #2:0 (aac) -> concat:in1:a0
  Stream #2:1 (h264) -> scale
  concat:out:v0 -> Stream #0:0 (libx264)
  concat:out:a0 -> Stream #0:1 (aac)
Press [q] to stop, [?] for help
[h264 @ 0x55d026f25b40] Reinit context to 1280x720, pix_fmt: yuv420p
[h264 @ 0x55d027304d80] Reinit context to 1280x720, pix_fmt: yuv420p
[Parsed_scale_0 @ 0x55d028283840] w:1920 h:1080 flags:'bilinear' interl:0
[Parsed_scale_2 @ 0x55d028288400] w:1920 h:1080 flags:'bilinear' interl:0
[Parsed_scale_4 @ 0x55d02828d240] w:1920 h:1080 flags:'bilinear' interl:0
[graph 0 input from stream 0:1 @ 0x55d0282918c0] w:1280 h:720 pixfmt:yuv420p tb:1/25000 fr:25/1 sar:1/1 sws_param:flags=2
[graph 0 input from stream 1:0 @ 0x55d028292940] w:1920 h:1080 pixfmt:rgba tb:1/25 fr:25/1 sar:2835/2835 sws_param:flags=2
[graph 0 input from stream 2:1 @ 0x55d0282939c0] w:1280 h:720 pixfmt:yuv420p tb:1/25000 fr:25/1 sar:1/1 sws_param:flags=2
[graph_0_in_0_0 @ 0x55d028294940] tb:1/44100 samplefmt:fltp samplerate:44100 chlayout:0x3
[graph_0_in_2_0 @ 0x55d028295a80] tb:1/44100 samplefmt:fltp samplerate:44100 chlayout:0x3
[Parsed_scale_0 @ 0x55d028283840] w:1280 h:720 fmt:yuv420p sar:1/1 -> w:1920 h:1080 fmt:yuv420p sar:1/1 flags:0x2
[Parsed_setsar_1 @ 0x55d02828b9c0] w:1920 h:1080 sar:1/1 dar:16/9 -> sar:1/1 dar:16/9
[Parsed_scale_2 @ 0x55d028288400] w:1920 h:1080 fmt:rgba sar:2835/2835 -> w:1920 h:1080 fmt:yuva420p sar:1/1 flags:0x2
[Parsed_setsar_3 @ 0x55d02828c600] w:1920 h:1080 sar:1/1 dar:16/9 -> sar:1/1 dar:16/9
[Parsed_overlay_6 @ 0x55d02828e8c0] main w:1920 h:1080 fmt:yuv420p overlay w:1920 h:1080 fmt:yuva420p
[Parsed_overlay_6 @ 0x55d02828e8c0] [framesync @ 0x55d02828e9e8] Selected 1/25000 time base
[Parsed_overlay_6 @ 0x55d02828e8c0] [framesync @ 0x55d02828e9e8] Sync level 2
[Parsed_scale_4 @ 0x55d02828d240] w:1280 h:720 fmt:yuv420p sar:1/1 -> w:1920 h:1080 fmt:yuv420p sar:1/1 flags:0x2
[Parsed_setsar_5 @ 0x55d02828dd00] w:1920 h:1080 sar:1/1 dar:16/9 -> sar:1/1 dar:16/9
[libx264 @ 0x55d027094f80] using SAR=1/1
[libx264 @ 0x55d027094f80] using cpu capabilities: MMX2 SSE2Fast SSSE3 SSE4.2 AVX FMA3 BMI2 AVX2
[libx264 @ 0x55d027094f80] profile High, level 4.0
[libx264 @ 0x55d027094f80] 264 - core 155 r2917 0a84d98 - H.264/MPEG-4 AVC codec - Copyleft 2003-2018 - http://www.videolan.org/x264.html - options: cabac=1 ref=1 deblock=1:0:0 analyse=0x3:0x113 me=hex subme=2 psy=1 psy_rd=1.00:0.00 mixed_ref=0 me_range=16 chroma_me=1 trellis=0 8x8dct=1 cqm=0 deadzone=21,11 fast_pskip=1 chroma_qp_offset=0 threads=24 lookahead_threads=8 sliced_threads=0 nr=0 decimate=1 interlaced=0 bluray_compat=0 constrained_intra=0 bframes=3 b_pyramid=2 b_adapt=1 b_bias=0 direct=1 weightb=1 open_gop=0 weightp=1 keyint=250 keyint_min=25 scenecut=40 intra_refresh=0 rc_lookahead=10 rc=crf mbtree=1 crf=18.0 qcomp=0.60 qpmin=0 qpmax=69 qpstep=4 ip_ratio=1.40 aq=1:1.00
Output #0, mp4, to '/var/www/html/project/media/video/watermarks/20250527_AVELLINO_GRU_ADDESTRAMENTO_TV.mp4':
  Metadata:
    major_brand     : mp42
    minor_version   : 1
    compatible_brands: isommp41mp42
    encoder         : Lavf58.29.100
    Stream #0:0: Video: h264 (libx264), 1 reference frame (avc1 / 0x31637661), yuv420p(progressive), 1920x1080 [SAR 1:1 DAR 16:9], q=-1--1, 25 fps, 12800 tbn, 25 tbc (default)
    Metadata:
      encoder         : Lavc58.54.100 libx264
    Side data:
      cpb: bitrate max/min/avg: 0/0/0 buffer size: 0 vbv_delay: -1
    Stream #0:1: Audio: aac (LC) (mp4a / 0x6134706D), 44100 Hz, stereo, fltp, delay 1024, 128 kb/s (default)
    Metadata:
      encoder         : Lavc58.54.100 aac
[Parsed_concat_7 @ 0x55d02828fa00] EOF on in0:a0, 1 streams left in segment.
[Parsed_overlay_6 @ 0x55d02828e8c0] [framesync @ 0x55d02828e9e8] Sync level 0
[Parsed_concat_7 @ 0x55d02828fa00] EOF on in0:v0, 0 streams left in segment.
[Parsed_concat_7 @ 0x55d02828fa00] Segment finished at pts=87143039
[Parsed_concat_7 @ 0x55d02828fa00] EOF on in1:a0, 1 streams left in segment.
[Parsed_concat_7 @ 0x55d02828fa00] EOF on in1:v0, 0 streams left in segment.
[Parsed_concat_7 @ 0x55d02828fa00] Segment finished at pts=89161724
No more output streams to write to, finishing.
frame= 2228 fps= 40 q=-1.0 Lsize=  123695kB time=00:01:29.16 bitrate=11364.5kbits/s speed=1.59x    
[AVIOContext @ 0x55d026ec0ec0] Statistics: 0 seeks, 109 writeouts
video:122232kB audio:1389kB subtitle:0kB other streams:0kB global headers:0kB muxing overhead: 0.059928%
Input file #0 (/var/www/html/project/media/video/original/20250527_AVELLINO_GRU_ADDESTRAMENTO_TV.mp4):
  Input stream #0:0 (audio): 3755 packets read (1373932 bytes); 3753 frames decoded (3843008 samples); 
  Input stream #0:1 (video): 2178 packets read (44162293 bytes); 2178 frames decoded; 
  Total: 5933 packets (45536225 bytes) demuxed
Input file #1 (/var/www/html/project/static/images/templates/logo.png):
  Input stream #1:0 (video): 1 packets read (111578 bytes); 1 frames decoded; 
  Total: 1 packets (111578 bytes) demuxed
Input file #2 (/var/www/html/project/static/images/templates/Codino.mp4):
  Input stream #2:0 (audio): 89 packets read (26579 bytes); 87 frames decoded (89024 samples); 
  Input stream #2:1 (video): 50 packets read (203365 bytes); 50 frames decoded; 
  Total: 139 packets (229944 bytes) demuxed
Output file #0 (/var/www/html/project/media/video/watermarks/20250527_AVELLINO_GRU_ADDESTRAMENTO_TV.mp4):
  Output stream #0:0 (video): 2228 frames encoded; 2228 packets muxed (125165568 bytes); 
  Output stream #0:1 (audio): 3840 frames encoded (3932032 samples); 3841 packets muxed (1422367 bytes); 
  Total: 6069 packets (126587935 bytes) muxed
[AVIOContext @ 0x55d026f4e6c0] Statistics: 2 seeks, 486 writeouts
[libx264 @ 0x55d027094f80] frame I:15    Avg QP:16.07  size:290402
[libx264 @ 0x55d027094f80] frame P:623   Avg QP:19.58  size:119857
[libx264 @ 0x55d027094f80] frame B:1590  Avg QP:23.06  size: 29018
[libx264 @ 0x55d027094f80] consecutive B-frames:  1.6%  8.3%  4.3% 85.8%
[libx264 @ 0x55d027094f80] mb I  I16..4:  9.7%  9.8% 80.4%
[libx264 @ 0x55d027094f80] mb P  I16..4:  2.9%  6.6%  8.2%  P16..4: 32.4% 21.7% 20.2%  0.0%  0.0%    skip: 8.0%
[libx264 @ 0x55d027094f80] mb B  I16..4:  0.7%  0.8%  0.5%  B16..8: 19.9% 11.7%  3.3%  direct:16.4%  skip:46.7%  L0:35.1% L1:39.4% BI:25.5%
[libx264 @ 0x55d027094f80] 8x8 transform intra:35.3% inter:37.2%
[libx264 @ 0x55d027094f80] coded y,uvDC,uvAC intra: 72.4% 64.8% 31.8% inter: 28.6% 16.5% 1.8%
[libx264 @ 0x55d027094f80] i16 v,h,dc,p: 43% 41% 10%  6%
[libx264 @ 0x55d027094f80] i8 v,h,dc,ddl,ddr,vr,hd,vl,hu: 26% 34% 13%  3%  5%  4%  7%  3%  5%
[libx264 @ 0x55d027094f80] i4 v,h,dc,ddl,ddr,vr,hd,vl,hu: 25% 25%  9%  5%  8%  7%  9%  5%  7%
[libx264 @ 0x55d027094f80] i8c dc,h,v,p: 43% 28% 22%  7%
[libx264 @ 0x55d027094f80] Weighted P-Frames: Y:5.0% UV:0.8%
[libx264 @ 0x55d027094f80] kb/s:11230.59
[aac @ 0x55d027096680] Qavg: 705.791
[AVIOContext @ 0x55d026ec9e40] Statistics: 157969762 bytes read, 4381 seeks
[AVIOContext @ 0x55d026ec8c40] Statistics: 111578 bytes read, 0 seeks
[AVIOContext @ 0x55d026f20400] Statistics: 1530915 bytes read, 42 seeks
